<svg width="3264" height="1141" xmlns="http://www.w3.org/2000/svg" xmlns:xlink="http://www.w3.org/1999/xlink" overflow="hidden"><defs><clipPath id="clip0"><rect x="650" y="1086" width="3264" height="1141"/></clipPath><clipPath id="clip1"><rect x="653" y="1088" width="3256" height="1134"/></clipPath><clipPath id="clip2"><rect x="653" y="1088" width="3256" height="1134"/></clipPath><clipPath id="clip3"><rect x="813" y="1258" width="3049" height="706"/></clipPath><clipPath id="clip4"><rect x="813" y="1258" width="3049" height="706"/></clipPath><clipPath id="clip5"><rect x="813" y="1258" width="3049" height="706"/></clipPath><clipPath id="clip6"><rect x="653" y="1088" width="3256" height="1134"/></clipPath><clipPath id="clip7"><rect x="653" y="1088" width="3256" height="1134"/></clipPath><clipPath id="clip8"><rect x="653" y="1088" width="3256" height="1134"/></clipPath><clipPath id="clip9"><rect x="653" y="1088" width="3256" height="1134"/></clipPath><clipPath id="clip10"><rect x="653" y="1088" width="3256" height="1134"/></clipPath><clipPath id="clip11"><rect x="653" y="1088" width="3256" height="1134"/></clipPath><clipPath id="clip12"><rect x="653" y="1088" width="3256" height="1134"/></clipPath><clipPath id="clip13"><rect x="653" y="1088" width="3256" height="1134"/></clipPath><clipPath id="clip14"><rect x="653" y="1088" width="3256" height="1134"/></clipPath><clipPath id="clip15"><rect x="653" y="1088" width="3256" height="1134"/></clipPath><clipPath id="clip16"><rect x="653" y="1088" width="3256" height="1134"/></clipPath><clipPath id="clip17"><rect x="653" y="1088" width="3256" height="1134"/></clipPath><clipPath id="clip18"><rect x="653" y="1088" width="3256" height="1134"/></clipPath><clipPath id="clip19"><rect x="653" y="1088" width="3256" height="1134"/></clipPath><clipPath id="clip20"><rect x="653" y="1088" width="3256" height="1134"/></clipPath><clipPath id="clip21"><rect x="653" y="1088" width="3256" height="1134"/></clipPath><clipPath id="clip22"><rect x="653" y="1088" width="3256" height="1134"/></clipPath><clipPath id="clip23"><rect x="653" y="1088" width="3256" height="1134"/></clipPath><clipPath id="clip24"><rect x="653" y="1088" width="3256" height="1134"/></clipPath><clipPath id="clip25"><rect x="653" y="1088" width="3256" height="1134"/></clipPath><clipPath id="clip26"><rect x="653" y="1088" width="3256" height="1134"/></clipPath><clipPath id="clip27"><rect x="653" y="1088" width="3256" height="1134"/></clipPath><clipPath id="clip28"><rect x="653" y="1088" width="3256" height="1134"/></clipPath><clipPath id="clip29"><rect x="653" y="1088" width="3256" height="1134"/></clipPath><clipPath id="clip30"><rect x="653" y="1088" width="3256" height="1134"/></clipPath><clipPath id="clip31"><rect x="653" y="1088" width="3256" height="1134"/></clipPath></defs><g clip-path="url(#clip0)" transform="translate(-650 -1086)"><rect x="653" y="1089" width="3257" height="1134" fill="#FFFFFF" fill-opacity="1"/><g clip-path="url(#clip1)"><path d="M813.5 1844.56 3859.5 1844.56M813.5 1727.56 3859.5 1727.56M813.5 1609.55 3859.5 1609.55M813.5 1492.55 3859.5 1492.55M813.5 1375.55 3859.5 1375.55M813.5 1258.5 3859.5 1258.5" stroke="#D9D9D9" stroke-width="3.4375" stroke-linecap="butt" stroke-linejoin="round" stroke-miterlimit="10" stroke-opacity="1" fill="none" fill-rule="nonzero"/></g><g clip-path="url(#clip2)"><path d="M813.5 1961.5 3859.5 1961.5" stroke="#D9D9D9" stroke-width="3.4375" stroke-linecap="butt" stroke-linejoin="round" stroke-miterlimit="10" stroke-opacity="1" fill="none" fill-rule="evenodd"/></g><g clip-path="url(#clip3)"><path d="M952 1517 1229.04 1536.05 1506.05 1639.05 1782.06 1644.05 2059.07 1698.06 2336.08 1844.06 2613.09 1802.06 2890.09 1571.05 3167.1 1571.05 3444.11 1961 3721 1864.06" stroke="#5B9BD5" stroke-width="10.3125" stroke-linecap="round" stroke-linejoin="round" stroke-miterlimit="10" stroke-opacity="1" fill="none" fill-rule="nonzero"/></g><g clip-path="url(#clip4)"><path d="M952 1820 1229.04 1801.06 1506.05 1698.06 1782.06 1693.06 2059.07 1639.05 2336.08 1493.05 2613.09 1535.05 2890.09 1766.06 3167.1 1766.06 3444.11 1376 3721 1473.05" stroke="#70AD47" stroke-width="10.3125" stroke-linecap="round" stroke-linejoin="round" stroke-miterlimit="10" stroke-opacity="1" fill="none" fill-rule="nonzero"/></g><g clip-path="url(#clip5)"><path d="M952 1961 1229.04 1961 1506.05 1961 1782.06 1961 2059.07 1961 2336.08 1961 2613.09 1961 2890.09 1961 3167.1 1961 3444.11 1961 3721 1961" stroke="#264478" stroke-width="10.3125" stroke-linecap="round" stroke-linejoin="round" stroke-miterlimit="10" stroke-opacity="1" fill="none" fill-rule="nonzero"/></g><g clip-path="url(#clip6)"><text fill="#595959" fill-opacity="1" font-family="Calibri,Calibri_MSFontService,sans-serif" font-style="normal" font-variant="normal" font-weight="400" font-stretch="normal" font-size="41" text-anchor="start" direction="ltr" writing-mode="lr-tb" unicode-bidi="normal" text-decoration="none" transform="matrix(1 0 0 1 724.717 1972)">0%</text></g><g clip-path="url(#clip7)"><text fill="#595959" fill-opacity="1" font-family="Calibri,Calibri_MSFontService,sans-serif" font-style="normal" font-variant="normal" font-weight="400" font-stretch="normal" font-size="41" text-anchor="start" direction="ltr" writing-mode="lr-tb" unicode-bidi="normal" text-decoration="none" transform="matrix(1 0 0 1 703.817 1855)">20%</text></g><g clip-path="url(#clip8)"><text fill="#595959" fill-opacity="1" font-family="Calibri,Calibri_MSFontService,sans-serif" font-style="normal" font-variant="normal" font-weight="400" font-stretch="normal" font-size="41" text-anchor="start" direction="ltr" writing-mode="lr-tb" unicode-bidi="normal" text-decoration="none" transform="matrix(1 0 0 1 703.817 1738)">40%</text></g><g clip-path="url(#clip9)"><text fill="#595959" fill-opacity="1" font-family="Calibri,Calibri_MSFontService,sans-serif" font-style="normal" font-variant="normal" font-weight="400" font-stretch="normal" font-size="41" text-anchor="start" direction="ltr" writing-mode="lr-tb" unicode-bidi="normal" text-decoration="none" transform="matrix(1 0 0 1 703.817 1621)">60%</text></g><g clip-path="url(#clip10)"><text fill="#595959" fill-opacity="1" font-family="Calibri,Calibri_MSFontService,sans-serif" font-style="normal" font-variant="normal" font-weight="400" font-stretch="normal" font-size="41" text-anchor="start" direction="ltr" writing-mode="lr-tb" unicode-bidi="normal" text-decoration="none" transform="matrix(1 0 0 1 703.817 1503)">80%</text></g><g clip-path="url(#clip11)"><text fill="#595959" fill-opacity="1" font-family="Calibri,Calibri_MSFontService,sans-serif" font-style="normal" font-variant="normal" font-weight="400" font-stretch="normal" font-size="41" text-anchor="start" direction="ltr" writing-mode="lr-tb" unicode-bidi="normal" text-decoration="none" transform="matrix(1 0 0 1 682.917 1386)">100%</text></g><g clip-path="url(#clip12)"><text fill="#595959" fill-opacity="1" font-family="Calibri,Calibri_MSFontService,sans-serif" font-style="normal" font-variant="normal" font-weight="400" font-stretch="normal" font-size="41" text-anchor="start" direction="ltr" writing-mode="lr-tb" unicode-bidi="normal" text-decoration="none" transform="matrix(1 0 0 1 682.917 1269)">120%</text></g><g clip-path="url(#clip13)"><text fill="#595959" fill-opacity="1" font-family="Calibri,Calibri_MSFontService,sans-serif" font-style="normal" font-variant="normal" font-weight="400" font-stretch="normal" font-size="41" text-anchor="start" direction="ltr" writing-mode="lr-tb" unicode-bidi="normal" text-decoration="none" transform="matrix(1 0 0 1 823.998 2027)">Less Than 1000</text></g><g clip-path="url(#clip14)"><text fill="#595959" fill-opacity="1" font-family="Calibri,Calibri_MSFontService,sans-serif" font-style="normal" font-variant="normal" font-weight="400" font-stretch="normal" font-size="41" text-anchor="start" direction="ltr" writing-mode="lr-tb" unicode-bidi="normal" text-decoration="none" transform="matrix(1 0 0 1 1117.98 2027)">1000 to 4999</text></g><g clip-path="url(#clip15)"><text fill="#595959" fill-opacity="1" font-family="Calibri,Calibri_MSFontService,sans-serif" font-style="normal" font-variant="normal" font-weight="400" font-stretch="normal" font-size="41" text-anchor="start" direction="ltr" writing-mode="lr-tb" unicode-bidi="normal" text-decoration="none" transform="matrix(1 0 0 1 1394.88 2027)">5000 to 9999</text></g><g clip-path="url(#clip16)"><text fill="#595959" fill-opacity="1" font-family="Calibri,Calibri_MSFontService,sans-serif" font-style="normal" font-variant="normal" font-weight="400" font-stretch="normal" font-size="41" text-anchor="start" direction="ltr" writing-mode="lr-tb" unicode-bidi="normal" text-decoration="none" transform="matrix(1 0 0 1 1650.87 2027)">10000 to 14999</text></g><g clip-path="url(#clip17)"><text fill="#595959" fill-opacity="1" font-family="Calibri,Calibri_MSFontService,sans-serif" font-style="normal" font-variant="normal" font-weight="400" font-stretch="normal" font-size="41" text-anchor="start" direction="ltr" writing-mode="lr-tb" unicode-bidi="normal" text-decoration="none" transform="matrix(1 0 0 1 1927.76 2027)">20000 to 24999</text></g><g clip-path="url(#clip18)"><text fill="#595959" fill-opacity="1" font-family="Calibri,Calibri_MSFontService,sans-serif" font-style="normal" font-variant="normal" font-weight="400" font-stretch="normal" font-size="41" text-anchor="start" direction="ltr" writing-mode="lr-tb" unicode-bidi="normal" text-decoration="none" transform="matrix(1 0 0 1 2204.65 2027)">25000 to 29999</text></g><g clip-path="url(#clip19)"><text fill="#595959" fill-opacity="1" font-family="Calibri,Calibri_MSFontService,sans-serif" font-style="normal" font-variant="normal" font-weight="400" font-stretch="normal" font-size="41" text-anchor="start" direction="ltr" writing-mode="lr-tb" unicode-bidi="normal" text-decoration="none" transform="matrix(1 0 0 1 2481.54 2027)">30000 to 34999</text></g><g clip-path="url(#clip20)"><text fill="#595959" fill-opacity="1" font-family="Calibri,Calibri_MSFontService,sans-serif" font-style="normal" font-variant="normal" font-weight="400" font-stretch="normal" font-size="41" text-anchor="start" direction="ltr" writing-mode="lr-tb" unicode-bidi="normal" text-decoration="none" transform="matrix(1 0 0 1 2758.44 2027)">35000 to 39999</text></g><g clip-path="url(#clip21)"><text fill="#595959" fill-opacity="1" font-family="Calibri,Calibri_MSFontService,sans-serif" font-style="normal" font-variant="normal" font-weight="400" font-stretch="normal" font-size="41" text-anchor="start" direction="ltr" writing-mode="lr-tb" unicode-bidi="normal" text-decoration="none" transform="matrix(1 0 0 1 3035.33 2027)">40000 to 44999</text></g><g clip-path="url(#clip22)"><text fill="#595959" fill-opacity="1" font-family="Calibri,Calibri_MSFontService,sans-serif" font-style="normal" font-variant="normal" font-weight="400" font-stretch="normal" font-size="41" text-anchor="start" direction="ltr" writing-mode="lr-tb" unicode-bidi="normal" text-decoration="none" transform="matrix(1 0 0 1 3312.22 2027)">45000 to 49999</text></g><g clip-path="url(#clip23)"><text fill="#595959" fill-opacity="1" font-family="Calibri,Calibri_MSFontService,sans-serif" font-style="normal" font-variant="normal" font-weight="400" font-stretch="normal" font-size="41" text-anchor="start" direction="ltr" writing-mode="lr-tb" unicode-bidi="normal" text-decoration="none" transform="matrix(1 0 0 1 3612.86 2027)">Greater than</text></g><g clip-path="url(#clip24)"><text fill="#595959" fill-opacity="1" font-family="Calibri,Calibri_MSFontService,sans-serif" font-style="normal" font-variant="normal" font-weight="400" font-stretch="normal" font-size="41" text-anchor="start" direction="ltr" writing-mode="lr-tb" unicode-bidi="normal" text-decoration="none" transform="matrix(1 0 0 1 3668.47 2077)">50000</text></g><g clip-path="url(#clip25)"><text fill="#595959" fill-opacity="1" font-family="Calibri,Calibri_MSFontService,sans-serif" font-style="normal" font-variant="normal" font-weight="400" font-stretch="normal" font-size="64" text-anchor="start" direction="ltr" writing-mode="lr-tb" unicode-bidi="normal" text-decoration="none" transform="matrix(1 0 0 1 1954.92 1184)">Outcomes Based on Goal</text></g><g clip-path="url(#clip26)"><path d="M1553 2157 1641 2157" stroke="#5B9BD5" stroke-width="10.3125" stroke-linecap="round" stroke-linejoin="round" stroke-miterlimit="10" stroke-opacity="1" fill="none" fill-rule="evenodd"/></g><g clip-path="url(#clip27)"><text fill="#595959" fill-opacity="1" font-family="Calibri,Calibri_MSFontService,sans-serif" font-style="normal" font-variant="normal" font-weight="400" font-stretch="normal" font-size="41" text-anchor="start" direction="ltr" writing-mode="lr-tb" unicode-bidi="normal" text-decoration="none" transform="matrix(1 0 0 1 1649.93 2167)">Percentage Successful</text></g><g clip-path="url(#clip28)"><path d="M2101 2157 2189 2157" stroke="#70AD47" stroke-width="10.3125" stroke-linecap="round" stroke-linejoin="round" stroke-miterlimit="10" stroke-opacity="1" fill="none" fill-rule="evenodd"/></g><g clip-path="url(#clip29)"><text fill="#595959" fill-opacity="1" font-family="Calibri,Calibri_MSFontService,sans-serif" font-style="normal" font-variant="normal" font-weight="400" font-stretch="normal" font-size="41" text-anchor="start" direction="ltr" writing-mode="lr-tb" unicode-bidi="normal" text-decoration="none" transform="matrix(1 0 0 1 2198.26 2167)">Percentage Failed</text></g><g clip-path="url(#clip30)"><path d="M2577 2157 2665 2157" stroke="#264478" stroke-width="10.3125" stroke-linecap="round" stroke-linejoin="round" stroke-miterlimit="10" stroke-opacity="1" fill="none" fill-rule="evenodd"/></g><g clip-path="url(#clip31)"><text fill="#595959" fill-opacity="1" font-family="Calibri,Calibri_MSFontService,sans-serif" font-style="normal" font-variant="normal" font-weight="400" font-stretch="normal" font-size="41" text-anchor="start" direction="ltr" writing-mode="lr-tb" unicode-bidi="normal" text-decoration="none" transform="matrix(1 0 0 1 2674.4 2167)">Percentage Canceled</text></g><rect x="653.5" y="1089.5" width="3257" height="1134" stroke="#D9D9D9" stroke-width="3.4375" stroke-linecap="butt" stroke-linejoin="round" stroke-miterlimit="10" stroke-opacity="1" fill="none"/></g></svg>